<svg xmlns="http://www.w3.org/2000/svg" width="1260" height="520" viewBox="0 0 1260 520" role="img" aria-labelledby="title desc">
<title>Average benchmark score ranking</title>
<desc>Average benchmark score ranking</desc>
<style>
.bg { fill: #FAFAFB; }
.card { fill: #FFFFFF; stroke: #E5E7EB; stroke-width: 1; }
.axis { stroke: #D1D5DB; stroke-width: 1; }
.grid { stroke: #E5E7EB; stroke-width: 1; stroke-dasharray: 4 4; }
.title { font: 700 28px -apple-system, BlinkMacSystemFont, 'Segoe UI', sans-serif; fill: #111827; }
.subtitle { font: 500 14px -apple-system, BlinkMacSystemFont, 'Segoe UI', sans-serif; fill: #4B5563; }
.label { font: 600 14px -apple-system, BlinkMacSystemFont, 'Segoe UI', sans-serif; fill: #111827; }
.small { font: 500 12px -apple-system, BlinkMacSystemFont, 'Segoe UI', sans-serif; fill: #4B5563; }
.tiny { font: 500 11px -apple-system, BlinkMacSystemFont, 'Segoe UI', sans-serif; fill: #6B7280; }
.value { font: 700 13px -apple-system, BlinkMacSystemFont, 'Segoe UI', sans-serif; fill: #111827; }
.value-light { font: 700 13px -apple-system, BlinkMacSystemFont, 'Segoe UI', sans-serif; fill: #FFFFFF; }
.mono { font: 600 12px ui-monospace, SFMono-Regular, Menlo, monospace; fill: #111827; }
</style>
<rect class="bg" x="0" y="0" width="1260" height="520" rx="24" />
<text class="title" x="56" y="56">Average Score Ranking</text>
<text class="subtitle" x="56" y="84">Generated from 2026-04-09T17:30:11+00:00 benchmark data with Gemma 4 runtime findings appended</text>
<line class="grid" x1="250.0" y1="122" x2="250.0" y2="500" />
<text class="tiny" x="250.0" y="112" text-anchor="middle">0.0</text>
<line class="grid" x1="322.0" y1="122" x2="322.0" y2="500" />
<text class="tiny" x="322.0" y="112" text-anchor="middle">0.1</text>
<line class="grid" x1="394.0" y1="122" x2="394.0" y2="500" />
<text class="tiny" x="394.0" y="112" text-anchor="middle">0.2</text>
<line class="grid" x1="466.0" y1="122" x2="466.0" y2="500" />
<text class="tiny" x="466.0" y="112" text-anchor="middle">0.3</text>
<line class="grid" x1="538.0" y1="122" x2="538.0" y2="500" />
<text class="tiny" x="538.0" y="112" text-anchor="middle">0.4</text>
<line class="grid" x1="610.0" y1="122" x2="610.0" y2="500" />
<text class="tiny" x="610.0" y="112" text-anchor="middle">0.5</text>
<line class="grid" x1="682.0" y1="122" x2="682.0" y2="500" />
<text class="tiny" x="682.0" y="112" text-anchor="middle">0.6</text>
<line class="grid" x1="754.0" y1="122" x2="754.0" y2="500" />
<text class="tiny" x="754.0" y="112" text-anchor="middle">0.7</text>
<line class="grid" x1="826.0" y1="122" x2="826.0" y2="500" />
<text class="tiny" x="826.0" y="112" text-anchor="middle">0.8</text>
<line class="grid" x1="898.0" y1="122" x2="898.0" y2="500" />
<text class="tiny" x="898.0" y="112" text-anchor="middle">0.9</text>
<line class="grid" x1="970.0" y1="122" x2="970.0" y2="500" />
<text class="tiny" x="970.0" y="112" text-anchor="middle">1.0</text>
<text class="label" x="56" y="158">qwen3.5:9b</text>
<rect x="250" y="130" width="676.1" height="42" rx="14" fill="#2563EB" />
<text class="value-light" x="910.1" y="157" text-anchor="end">0.94</text>
<text class="small" x="942.1" y="157">median 12.55s</text>
<text class="label" x="56" y="222">qwen2.5-coder:14b</text>
<rect x="250" y="194" width="671.8" height="42" rx="14" fill="#DB2777" />
<text class="value-light" x="905.8" y="221" text-anchor="end">0.93</text>
<text class="small" x="937.8" y="221">median 15.55s</text>
<text class="label" x="56" y="286">qwen2.5:14b</text>
<rect x="250" y="258" width="666.0" height="42" rx="14" fill="#7C3AED" />
<text class="value-light" x="900.0" y="285" text-anchor="end">0.93</text>
<text class="small" x="932.0" y="285">median 12.75s</text>
<text class="label" x="56" y="350">mistral-small:22b</text>
<rect x="250" y="322" width="617.0" height="42" rx="14" fill="#DC2626" />
<text class="value-light" x="851.0" y="349" text-anchor="end">0.86</text>
<text class="small" x="883.0" y="349">median 28.85s</text>
<text class="label" x="56" y="414">phi4</text>
<rect x="250" y="386" width="612.7" height="42" rx="14" fill="#16A34A" />
<text class="value-light" x="846.7" y="413" text-anchor="end">0.85</text>
<text class="small" x="878.7" y="413">median 13.44s</text>
<text class="label" x="56" y="478">apfel</text>
<rect x="250" y="450" width="465.8" height="42" rx="14" fill="#D97706" />
<text class="value-light" x="699.8" y="477" text-anchor="end">0.65</text>
<text class="small" x="731.8" y="477">median 1.16s</text>
<rect class="card" x="56" y="430" width="1148" height="54" rx="16" />
<text class="label" x="76" y="462">gemma4:e4b</text>
<text class="small" x="230" y="462">not ranked: local runtime failed before first token, so no fair average score exists yet</text>
</svg>
